<?xml version="1.0" standalone="no"?>
<!DOCTYPE svg PUBLIC "-//W3C//DTD SVG 20010904//EN"
 "http://www.w3.org/TR/2001/REC-SVG-20010904/DTD/svg10.dtd">
<svg version="1.0" xmlns="http://www.w3.org/2000/svg"
 width="1200.000000pt" height="1200.000000pt" viewBox="0 0 1200.000000 1200.000000"
 preserveAspectRatio="xMidYMid meet">
<metadata>
Created by potrace 1.14, written by Peter Selinger 2001-2017
</metadata>
<g transform="translate(0.000000,1200.000000) scale(0.100000,-0.100000)"
fill="#000000" stroke="none">
<path d="M5014 11471 c-34 -33 -32 -84 2 -116 15 -14 36 -25 47 -25 28 0 160
-66 192 -96 14 -13 29 -24 32 -24 18 0 162 -165 189 -216 51 -98 105 -196 140
-257 19 -32 34 -60 34 -63 0 -3 20 -39 43 -82 24 -42 63 -113 87 -157 24 -44
57 -105 73 -135 17 -30 57 -104 90 -165 33 -60 80 -146 104 -190 24 -44 51
-93 59 -110 8 -16 25 -48 37 -70 13 -22 45 -80 72 -130 26 -49 51 -94 55 -100
4 -5 29 -50 55 -100 26 -49 57 -108 69 -130 11 -22 23 -42 26 -45 3 -3 13 -21
22 -40 21 -43 102 -192 231 -425 28 -49 70 -128 95 -175 25 -47 65 -120 89
-163 25 -44 42 -84 40 -91 -3 -7 -38 -32 -79 -57 -40 -24 -74 -47 -76 -51 -2
-5 -8 -8 -13 -8 -4 0 -28 -13 -51 -29 -24 -16 -68 -44 -98 -63 -134 -84 -156
-98 -167 -108 -7 -5 -17 -10 -22 -10 -6 0 -14 -6 -18 -12 -4 -7 -20 -20 -35
-28 -110 -60 -158 -95 -167 -121 -13 -37 -6 -68 19 -94 21 -20 24 -20 1334
-20 l1314 0 19 24 c11 13 30 45 43 70 14 25 57 106 98 180 40 74 78 143 83
155 5 12 13 28 19 36 11 17 131 237 205 375 26 50 54 97 61 106 8 8 14 22 14
30 0 8 4 19 9 25 5 5 23 36 41 69 18 33 44 80 57 105 14 25 43 79 65 120 23
41 52 95 66 120 14 25 39 72 57 105 39 74 90 167 120 220 12 22 46 85 75 140
29 55 64 117 77 138 13 20 21 37 17 37 -3 0 3 12 14 28 11 15 39 63 62 107 23
44 60 112 81 151 47 85 49 116 10 154 -24 25 -33 28 -57 21 -34 -10 -156 -80
-166 -95 -4 -6 -8 -7 -8 -2 0 4 -15 -2 -32 -16 -18 -13 -67 -44 -108 -68 -41
-24 -86 -50 -100 -59 -57 -36 -66 -41 -82 -47 -10 -3 -18 -10 -18 -15 0 -5 -4
-9 -9 -9 -5 0 -46 -22 -91 -50 -45 -27 -84 -50 -87 -50 -4 0 -14 -7 -23 -15
-23 -21 -17 -30 -165 250 -53 100 -116 217 -153 285 -14 25 -49 92 -80 150
-30 58 -65 123 -77 145 -27 48 -48 86 -201 375 -103 196 -127 234 -185 293
-37 37 -74 67 -83 67 -9 0 -16 3 -16 8 0 10 -72 37 -140 53 -44 10 -379 13
-1633 14 l-1579 0 -24 -24z"/>
<path d="M4010 11315 c-101 -15 -121 -19 -180 -35 -25 -7 -52 -13 -60 -15 -8
-2 -28 -9 -45 -16 -16 -6 -35 -13 -41 -14 -7 -2 -54 -24 -105 -50 -228 -115
-320 -213 -474 -500 -66 -123 -97 -181 -170 -315 -34 -63 -88 -164 -120 -225
-32 -60 -66 -121 -75 -135 -10 -14 -17 -27 -17 -30 1 -4 -49 -98 -169 -318
-13 -23 -51 -95 -85 -160 -34 -64 -65 -121 -69 -127 -4 -5 -24 -41 -45 -80
-21 -38 -87 -162 -148 -275 -198 -368 -219 -411 -212 -438 3 -13 13 -32 22
-40 19 -20 202 -132 214 -132 5 0 9 -4 9 -10 0 -5 6 -10 14 -10 8 0 16 -3 18
-8 4 -9 207 -132 219 -132 5 0 9 -4 9 -10 0 -5 6 -10 14 -10 8 0 16 -4 18 -8
4 -10 254 -162 267 -162 5 0 11 -4 13 -9 2 -5 62 -44 133 -87 72 -43 132 -81
135 -84 3 -3 16 -12 30 -20 14 -8 63 -38 110 -67 47 -29 92 -56 100 -60 8 -3
33 -18 55 -33 22 -15 61 -40 87 -56 25 -16 101 -63 168 -104 67 -41 138 -85
158 -98 20 -12 52 -30 70 -39 17 -9 32 -20 32 -25 0 -4 5 -8 11 -8 6 0 34 -15
62 -34 29 -19 106 -66 172 -106 66 -40 127 -79 135 -85 40 -34 99 -19 127 33
11 20 49 91 85 157 36 66 79 145 95 175 64 117 91 168 133 245 23 44 56 105
73 135 52 93 139 253 155 285 17 33 161 300 252 465 31 58 75 139 97 180 89
165 111 207 131 241 11 21 44 81 73 135 28 55 73 137 99 184 53 95 191 350
227 420 12 24 21 55 18 68 -4 24 -42 97 -144 275 -10 17 -60 106 -111 197 -51
91 -121 215 -155 275 -34 61 -88 156 -119 212 -79 139 -185 246 -316 317 -19
10 -53 28 -75 40 -71 39 -229 94 -320 111 -178 34 -432 43 -585 20z"/>
<path d="M10245 7948 c-11 -6 -38 -23 -60 -36 -22 -14 -41 -24 -41 -21 -1 2
-10 -3 -20 -13 -24 -21 -254 -158 -265 -158 -5 0 -9 -4 -9 -10 0 -5 -7 -10
-15 -10 -8 0 -15 -3 -15 -8 0 -4 -21 -18 -47 -32 -27 -13 -50 -27 -53 -30 -5
-7 -177 -108 -210 -125 -11 -5 -20 -13 -20 -17 0 -5 -4 -8 -9 -8 -5 0 -46 -22
-90 -50 -44 -27 -85 -50 -90 -50 -5 0 -12 -7 -15 -16 -3 -8 -10 -12 -16 -9 -5
3 -10 1 -10 -6 0 -7 -3 -9 -7 -6 -3 4 -13 1 -22 -7 -23 -19 -220 -136 -230
-136 -5 0 -12 -7 -15 -16 -4 -9 -9 -14 -13 -10 -3 3 -13 0 -22 -7 -18 -15
-144 -92 -208 -127 -24 -13 -43 -28 -43 -32 0 -5 -4 -7 -9 -3 -6 3 -14 -3 -20
-12 -6 -10 -11 -14 -11 -9 0 5 -6 4 -12 -2 -14 -11 -259 -160 -443 -269 -130
-77 -211 -130 -242 -157 -41 -35 -35 -59 71 -248 14 -27 38 -69 52 -95 15 -27
42 -77 61 -112 19 -35 43 -78 54 -95 10 -17 26 -47 36 -66 9 -19 19 -37 22
-40 4 -3 14 -21 23 -40 17 -35 31 -60 142 -260 33 -58 83 -150 114 -205 49
-90 83 -152 132 -240 9 -16 45 -82 80 -145 35 -63 107 -194 160 -290 53 -96
113 -204 132 -240 19 -36 59 -108 88 -160 29 -52 64 -115 77 -140 196 -354
204 -365 258 -365 17 0 36 4 43 8 6 5 12 5 12 0 0 -9 137 -9 146 0 5 5 37 -3
55 -14 3 -2 13 2 22 10 10 7 17 10 17 5 0 -5 20 -9 45 -9 25 0 45 3 45 6 0 4
12 4 28 0 15 -4 42 -4 60 0 17 4 32 3 32 -2 0 -11 23 -7 32 6 5 7 8 7 8 0 0
-10 127 -12 137 -2 4 5 56 -10 59 -16 0 -1 8 4 17 12 10 7 17 10 17 5 0 -5 20
-9 45 -9 25 0 45 3 45 8 0 4 8 4 17 -2 10 -5 26 -5 40 0 14 5 23 5 23 -1 0 -8
38 -5 68 5 6 2 12 1 12 -3 0 -8 129 -7 137 1 3 3 15 2 28 -3 13 -5 26 -6 29
-2 7 6 28 11 63 15 13 1 23 5 23 10 0 4 6 7 13 7 7 0 37 11 65 25 29 14 54 25
57 25 5 0 102 58 120 72 6 4 35 27 65 50 30 23 68 54 84 68 48 42 185 191 186
202 0 4 6 13 14 21 30 29 119 176 162 265 162 334 189 680 78 1018 -32 99 -63
162 -196 401 -60 109 -128 232 -150 273 -23 41 -44 80 -48 85 -4 6 -24 42 -45
80 -21 39 -93 169 -160 290 -68 121 -136 245 -153 275 -16 30 -51 93 -77 140
-49 88 -90 162 -133 240 -14 25 -44 79 -67 120 -24 41 -57 101 -74 134 -112
206 -167 299 -185 312 -24 17 -54 18 -81 2z"/>
<path d="M205 7380 c-41 -16 -61 -66 -43 -106 11 -23 119 -104 138 -104 5 0
15 -6 22 -13 7 -7 67 -46 133 -86 66 -39 147 -90 180 -111 33 -22 67 -43 75
-47 32 -17 115 -67 120 -74 3 -3 19 -13 35 -22 17 -9 41 -25 54 -35 l24 -20
-31 -51 c-18 -28 -32 -53 -32 -55 0 -2 -33 -62 -74 -133 -40 -70 -84 -148 -98
-173 -14 -25 -65 -115 -113 -200 -201 -355 -246 -470 -281 -720 -13 -92 -7
-335 11 -400 2 -8 6 -33 10 -55 3 -22 10 -58 16 -80 6 -22 12 -47 14 -55 8
-39 71 -203 107 -279 81 -171 215 -362 338 -481 74 -71 152 -139 177 -153 43
-25 128 -71 133 -72 3 0 14 -6 25 -12 20 -11 96 -34 105 -31 3 1 15 -4 27 -10
12 -7 24 -8 27 -3 3 4 18 6 33 4 40 -6 45 -6 75 0 15 3 30 1 34 -4 3 -5 9 -7
13 -5 17 11 61 14 67 5 3 -5 9 -7 13 -5 17 11 61 14 67 5 3 -5 9 -7 13 -5 17
11 61 14 67 5 3 -5 9 -7 13 -5 17 11 61 14 67 5 3 -5 9 -7 13 -5 17 11 61 14
67 5 3 -5 10 -6 16 -3 18 11 128 10 128 -1 0 -5 5 -3 10 5 8 12 10 12 10 1 0
-9 4 -10 12 -4 7 5 24 8 38 6 30 -4 28 -4 108 -1 37 2 62 -1 62 -7 0 -7 3 -7
8 0 10 14 32 17 32 4 0 -8 5 -8 15 1 11 9 15 9 15 1 0 -7 5 -9 11 -5 16 9 159
11 159 2 0 -5 5 -8 11 -8 5 0 8 4 5 9 -3 5 0 9 7 8 46 -1 55 6 100 82 26 43
47 81 47 84 0 3 15 32 34 64 18 32 54 96 78 143 25 47 57 105 71 130 13 25 55
101 92 170 37 69 82 152 100 185 18 33 72 131 119 217 47 87 86 162 86 168 0
5 5 10 10 10 6 0 10 4 10 8 0 10 98 193 109 205 5 5 15 2 22 -5 8 -7 21 -14
29 -16 8 -2 17 -8 18 -13 2 -5 9 -9 16 -9 6 0 21 -7 31 -15 11 -9 70 -44 130
-78 61 -35 171 -98 245 -142 74 -43 150 -86 168 -94 17 -8 32 -19 32 -23 0 -4
7 -8 15 -8 8 0 15 -5 15 -11 0 -5 4 -7 10 -4 5 3 10 1 10 -5 0 -6 4 -8 10 -5
6 3 10 2 10 -4 0 -18 61 -5 83 17 40 40 29 71 -118 337 -135 245 -153 278
-231 420 -21 39 -64 117 -96 174 -32 58 -58 108 -58 112 0 3 -7 12 -15 19 -9
7 -13 15 -10 18 3 3 1 10 -4 16 -8 11 -126 221 -188 336 -16 30 -55 101 -86
158 -73 132 -155 280 -199 362 -19 36 -58 106 -85 155 -28 50 -67 122 -88 160
-21 39 -53 96 -71 128 -19 32 -34 62 -34 66 0 5 -13 23 -28 39 l-29 30 -1314
0 c-723 0 -1323 -3 -1334 -8z"/>
<path d="M7562 4577 c-12 -7 -32 -31 -43 -52 -27 -51 -183 -336 -217 -395 -13
-25 -40 -74 -60 -110 -19 -36 -69 -128 -112 -205 -42 -77 -94 -171 -116 -210
-21 -38 -48 -88 -61 -110 -12 -22 -31 -56 -41 -75 -10 -19 -46 -84 -79 -145
-33 -60 -76 -139 -96 -175 -40 -75 -259 -472 -385 -700 -47 -85 -98 -178 -114
-207 -43 -79 -42 -85 73 -285 22 -36 39 -70 39 -73 0 -4 8 -19 18 -33 10 -15
39 -65 64 -112 25 -47 75 -138 112 -203 36 -65 66 -120 66 -123 0 -2 11 -21
24 -42 12 -20 37 -64 55 -97 18 -33 36 -67 41 -75 14 -24 84 -149 124 -223 73
-135 287 -522 296 -537 11 -18 158 -286 191 -348 l23 -42 155 0 156 0 0 321
c0 176 2 324 5 329 3 5 48 9 100 9 52 1 140 1 195 1 55 0 107 0 115 1 8 0 121
0 250 -1 129 -1 294 -1 365 -1 72 0 175 1 230 1 55 0 109 0 120 0 11 0 59 1
106 1 135 0 215 19 296 72 69 45 146 131 176 197 4 8 22 42 40 75 92 170 167
310 252 470 26 50 63 119 83 155 120 224 188 351 232 435 20 39 52 97 70 130
18 33 55 103 83 155 27 52 80 151 117 220 37 69 89 166 115 215 26 50 61 115
78 145 16 30 52 98 80 150 108 203 142 267 174 325 18 33 59 113 92 178 53
104 59 120 50 146 -13 36 -46 59 -77 55 -12 -2 -54 -26 -93 -53 -39 -27 -83
-53 -100 -56 -16 -4 -29 -11 -29 -16 0 -6 -4 -8 -9 -5 -5 4 -22 2 -36 -4 -40
-15 -90 -22 -180 -25 -44 -2 -82 -4 -85 -5 -3 -1 -9 -1 -15 0 -31 7 -75 4 -75
-5 0 -7 -3 -7 -8 0 -4 6 -31 10 -60 9 -43 -1 -58 3 -75 20 -31 29 -94 76 -104
76 -4 0 -20 7 -35 14 -77 40 -237 32 -333 -17 -41 -20 -86 -51 -117 -78 -13
-11 -40 -16 -92 -16 -41 -1 -79 -4 -84 -7 -6 -4 -13 -2 -16 2 -6 10 -46 10
-61 0 -6 -4 -17 -3 -24 2 -8 4 -27 4 -42 0 -16 -5 -31 -5 -33 -1 -6 8 -132 5
-146 -4 -5 -3 -11 -1 -14 3 -6 10 -46 10 -61 0 -6 -4 -17 -3 -24 2 -8 4 -27 4
-42 0 -16 -5 -31 -5 -33 -2 -4 7 -93 8 -106 2 -3 -1 -9 -1 -15 0 -27 6 -102 5
-117 -2 -9 -4 -19 -5 -22 0 -5 9 -108 8 -122 -1 -6 -3 -16 -2 -24 3 -8 5 -21
5 -31 0 -9 -5 -19 -7 -23 -3 -9 9 -117 10 -123 1 -2 -5 -9 -6 -14 -2 -16 9
-140 11 -145 2 -3 -5 -10 -5 -16 -2 -16 10 -100 11 -120 2 -9 -4 -19 -5 -22 0
-5 9 -108 8 -122 -1 -6 -3 -16 -2 -24 3 -8 5 -21 5 -31 0 -9 -5 -19 -7 -23 -3
-9 9 -117 10 -122 1 -3 -5 -13 -4 -23 2 -10 5 -21 7 -24 3 -3 -3 -16 -3 -29 0
l-23 6 0 449 c0 365 -3 454 -14 475 -8 15 -18 24 -22 21 -4 -2 -10 0 -14 6 -8
13 -35 12 -63 -3z"/>
<path d="M2846 3843 c-2 -2 -13 -6 -25 -8 -11 -3 -31 -7 -43 -10 -13 -3 -24
-9 -26 -15 -2 -5 -9 -10 -15 -10 -24 0 -83 -66 -110 -123 -16 -31 -32 -55 -37
-52 -5 3 -12 1 -15 -5 -5 -8 -11 -8 -20 0 -9 8 -15 8 -20 0 -4 -6 -12 -7 -24
-1 -10 6 -23 6 -31 1 -8 -5 -18 -6 -24 -3 -14 9 -117 9 -123 1 -2 -5 -9 -5
-15 -2 -16 10 -100 11 -120 2 -9 -4 -19 -5 -21 -1 -6 10 -210 8 -225 -1 -6 -3
-13 -2 -16 2 -5 9 -111 6 -126 -3 -5 -3 -11 -1 -14 3 -6 10 -46 10 -61 0 -6
-4 -17 -3 -24 2 -8 4 -27 4 -42 0 -16 -5 -31 -5 -33 -1 -6 8 -132 5 -146 -4
-5 -3 -11 -1 -14 3 -6 10 -46 10 -61 0 -6 -4 -17 -3 -24 2 -8 4 -27 4 -42 0
-16 -5 -31 -5 -33 -1 -3 4 -30 6 -60 6 -31 -1 -56 2 -56 5 0 4 -10 6 -23 5
-38 -3 -119 33 -177 79 -54 43 -91 46 -127 10 -33 -33 -27 -75 20 -147 33 -50
64 -106 170 -307 27 -52 56 -103 65 -112 8 -10 13 -18 9 -18 -5 0 7 -25 75
-150 20 -36 95 -177 168 -315 198 -374 220 -416 250 -470 15 -27 51 -95 80
-150 29 -55 69 -131 90 -170 43 -80 82 -154 205 -385 119 -225 170 -320 223
-420 109 -204 228 -341 342 -393 19 -9 49 -18 65 -21 17 -2 32 -5 35 -6 3 -1
34 -1 70 -1 68 1 75 1 115 1 14 0 31 0 38 0 6 1 59 0 117 0 58 0 113 0 123 0
9 0 28 0 42 0 14 0 31 0 38 0 6 1 59 0 117 0 58 0 113 0 123 0 9 0 28 0 42 0
14 0 31 0 38 0 6 1 59 0 117 0 58 0 114 0 125 0 106 1 232 2 240 1 12 -1 213
-1 235 0 8 0 121 0 250 -1 129 -1 294 -1 365 -1 215 1 339 1 360 1 11 0 77 -1
148 -3 70 -1 127 1 127 5 0 4 8 4 17 1 15 -6 62 -8 81 -3 4 1 15 3 26 4 10 0
28 13 39 29 l21 27 1 1408 c0 849 -3 1420 -9 1440 -6 21 -17 34 -33 38 -12 4
-21 9 -19 13 4 6 -81 7 -94 1 -3 -1 -9 -1 -15 0 -27 6 -102 5 -117 -2 -9 -4
-19 -5 -21 -1 -4 7 -195 9 -222 3 -5 -1 -12 -1 -15 0 -17 6 -82 5 -86 -2 -3
-5 -10 -5 -16 -2 -16 10 -100 11 -120 2 -9 -4 -19 -5 -22 0 -5 9 -108 8 -122
-1 -6 -3 -16 -2 -24 3 -8 5 -21 5 -31 0 -9 -5 -19 -7 -23 -3 -9 9 -117 10
-123 1 -2 -5 -9 -6 -14 -2 -16 9 -140 11 -145 2 -3 -5 -10 -5 -16 -2 -16 10
-100 11 -120 2 -9 -4 -19 -5 -22 0 -5 9 -108 8 -122 -1 -6 -3 -16 -2 -24 3 -8
5 -21 5 -31 0 -9 -5 -19 -7 -23 -3 -9 9 -117 10 -123 1 -2 -5 -9 -5 -16 -1
-13 8 -176 8 -184 0 -2 -3 -26 6 -51 20 -105 58 -100 56 -118 39 -8 -9 -20
-16 -25 -16 -5 0 -9 -7 -9 -15 0 -15 -40 -30 -62 -23 -7 3 -25 1 -40 -3 -15
-4 -30 -4 -33 0 -5 9 -45 8 -61 -2 -6 -3 -14 -3 -18 0 -4 4 -14 8 -23 9 -9 2
-21 10 -26 20 -33 58 -230 198 -251 177 -3 -3 -6 -2 -6 3 0 5 -10 10 -22 11
-92 7 -138 9 -142 6z"/>
</g>
</svg>
